<svg xmlns="http://www.w3.org/2000/svg" xmlns:xlink="http://www.w3.org/1999/xlink" width="100" height="100" viewBox="0 0 100 100"><circle stroke="none" fill="#E3E3E3" r="48%" cx="50%" cy="50%"></circle><g transform="translate(50 50) scale(0.69 0.69) rotate(0) translate(-50 -50)" style="fill:#B30083"><svg fill="#B30083" xmlns:x="http://ns.adobe.com/Extensibility/1.0/" xmlns:i="http://ns.adobe.com/AdobeIllustrator/10.0/" xmlns:graph="http://ns.adobe.com/Graphs/1.0/" xmlns="http://www.w3.org/2000/svg" xmlns:xlink="http://www.w3.org/1999/xlink" version="1.1" x="0px" y="0px" viewBox="0 0 100 100" style="enable-background:new 0 0 100 100;" xml:space="preserve"><g><g i:extraneous="self"><g><g><path d="M70.4,41.2l-8-4.9c-1.1-0.6-2.4,0.1-2.4,1.4v2.9h-4.3c-1.6,0-2.9-1.3-2.9-2.9v-9.8c0-4.4-3.6-7.9-7.9-7.9      s-7.9,3.6-7.9,7.9v22.4c0,2.3-1.8,4.1-4.1,4.1c-2.3,0-4.1-1.8-4.1-4.1V35.6c0-4.4-3.6-7.9-8-7.9c-4.4,0-7.9,3.6-7.9,7.9v2.2      c0,1.6-1.3,2.9-2.9,2.9H4.4c-1.1,0-1.9,0.9-1.9,1.9c0,1.1,0.9,1.9,1.9,1.9h5.7c3.7,0,6.7-3,6.7-6.7v-2.2c0-2.3,1.8-4.1,4.2-4.1      c2.3,0,4.1,1.8,4.1,4.1v14.8c0,4.4,3.6,7.9,7.9,7.9c4.4,0,7.9-3.6,7.9-7.9V27.9c0-2.3,1.8-4.1,4.1-4.1c2.3,0,4.1,1.8,4.1,4.1      v9.8c0,3.7,3,6.7,6.7,6.7h4.3v2.9c0,1.2,1.4,2,2.4,1.4l8-4.9C71.5,43.3,71.5,41.8,70.4,41.2z"></path></g><g><path d="M70.4,68.4l-8-4.9c-1.1-0.6-2.4,0.1-2.4,1.4v2.9H4.4c-1.1,0-1.9,0.9-1.9,1.9s0.9,1.9,1.9,1.9h55.7v2.9      c0,1.2,1.4,2,2.4,1.4l8-4.9C71.5,70.5,71.5,69,70.4,68.4z"></path></g><g><path d="M86.7,58.4c-6,0-10.8,4.8-10.8,10.8c0,6,4.8,10.8,10.8,10.8s10.8-4.8,10.8-10.8C97.5,63.2,92.7,58.4,86.7,58.4z       M91.9,67.8l-5.6,5.6c-0.3,0.3-0.7,0.5-1.1,0.5c-0.4,0-0.8-0.2-1.1-0.5l-2.8-2.8c-0.6-0.6-0.6-1.7,0-2.3c0.6-0.6,1.7-0.6,2.3,0      l1.6,1.6l4.4-4.4c0.6-0.6,1.7-0.6,2.3,0C92.5,66.2,92.5,67.2,91.9,67.8z"></path></g><g><path d="M86.7,53.3c6,0,10.8-4.8,10.8-10.8c0-6-4.8-10.8-10.8-10.8s-10.8,4.8-10.8,10.8C75.9,48.5,80.7,53.3,86.7,53.3z       M82.4,40.6c-0.6-0.6-0.6-1.7,0-2.3c0.6-0.6,1.7-0.6,2.3,0l2,2l2-2c0.6-0.6,1.7-0.6,2.3,0c0.6,0.6,0.6,1.7,0,2.3l-2,2l2,2      c0.6,0.6,0.6,1.7,0,2.3c-0.3,0.3-0.7,0.5-1.2,0.5c-0.4,0-0.8-0.2-1.2-0.5l-2-2l-2,2c-0.3,0.3-0.7,0.5-1.2,0.5      c-0.4,0-0.8-0.2-1.2-0.5c-0.6-0.6-0.6-1.7,0-2.3l2-2L82.4,40.6z"></path></g></g></g></g></svg></g></svg>